<svg version="1.1" id="Layer_1" xmlns="http://www.w3.org/2000/svg" xmlns:xlink="http://www.w3.org/1999/xlink" x="0px" y="0px"
	 width="100%" viewBox="0 0 1242 2688" enable-background="new 0 0 1242 2688" xml:space="preserve">
<path fill="#484676" opacity="1.000000" stroke="none" 
	d="
M1243.000000,1997.000000 
	C1243.000000,2227.630371 1243.000000,2458.260986 1243.000000,2688.945801 
	C829.101196,2688.945801 415.202362,2688.945801 1.000000,2688.945801 
	C1.000000,2458.637451 1.000000,2228.274658 1.459705,1997.455933 
	C415.612946,1997.000000 829.306458,1997.000000 1243.000000,1997.000000 
z"/>
<path fill="#2F5576" opacity="1.000000" stroke="none" 
	d="
M1.000000,614.000000 
	C1.000000,409.700806 1.000000,205.401581 1.000000,1.051189 
	C414.896729,1.051189 828.793457,1.051189 1243.000000,1.051189 
	C1243.000000,205.029266 1243.000000,409.058716 1242.540283,613.544067 
	C828.387024,614.000000 414.693512,614.000000 1.000000,614.000000 
z"/>
<path fill="#355176" opacity="1.000000" stroke="none" 
	d="
M1.000000,614.459717 
	C414.693512,614.000000 828.387024,614.000000 1242.540283,614.000000 
	C1243.000000,716.360168 1243.000000,818.720398 1242.531372,921.540283 
	C1103.201416,922.000000 964.340088,921.999817 825.478760,922.001831 
	C823.314392,922.001892 821.086670,921.716248 819.004883,922.138245 
	C817.194031,922.505371 815.548218,923.686584 813.494934,924.364380 
	C792.291138,911.397522 769.267212,909.572876 745.638916,911.218201 
	C742.026794,911.469727 739.896606,910.770508 738.048340,907.435913 
	C718.302612,871.812317 689.390015,847.080811 650.509094,834.324402 
	C610.065979,821.055420 570.125977,822.962036 531.772522,840.939880 
	C490.298431,860.380371 463.266449,892.941223 450.800323,937.220520 
	C449.832977,940.656555 448.277283,942.334473 444.673645,943.271057 
	C411.745148,951.829895 384.574127,968.347412 367.891785,999.325073 
	C364.405487,998.737915 361.299133,998.047852 358.192444,998.046448 
	C239.128311,997.991699 120.064156,998.000000 1.000000,998.000000 
	C1.000000,870.306458 1.000000,742.612976 1.000000,614.459717 
z"/>
<path fill="#424A76" opacity="1.000000" stroke="none" 
	d="
M1243.000000,1996.540283 
	C829.306458,1997.000000 415.612946,1997.000000 1.459705,1997.000000 
	C1.000000,1894.973145 1.000000,1792.946289 1.463884,1690.459717 
	C415.618500,1690.000000 829.309265,1690.000000 1243.000000,1690.000000 
	C1243.000000,1792.026855 1243.000000,1894.053711 1243.000000,1996.540283 
z"/>
<path fill="#3B4E76" opacity="1.000000" stroke="none" 
	d="
M1243.000000,1152.000000 
	C1243.000000,1194.687622 1243.000000,1237.375122 1242.531372,1280.531372 
	C828.375183,1281.000000 414.687592,1281.000000 1.000000,1281.000000 
	C1.000000,1239.312378 1.000000,1197.624878 1.468657,1155.468628 
	C144.136826,1155.000000 286.336334,1155.000244 428.535858,1154.997559 
	C430.700195,1154.997559 432.941132,1155.301514 435.005615,1154.837646 
	C436.775116,1154.440063 438.342712,1153.143799 440.378876,1152.266479 
	C449.406219,1153.883423 457.973480,1156.751709 467.301331,1154.082397 
	C478.445038,1154.477539 489.188446,1154.738770 500.096252,1155.356445 
	C502.963989,1164.344849 504.932983,1173.295532 508.514801,1181.546265 
	C517.525940,1202.303345 531.382385,1219.426636 550.568481,1231.614136 
	C568.533386,1243.025757 588.153992,1249.695312 609.752319,1249.894653 
	C653.233887,1250.295898 686.738220,1232.025024 710.559631,1195.968994 
	C719.541809,1182.373657 724.155334,1166.932373 727.585327,1151.000244 
	C738.307983,1151.000366 748.569824,1151.000732 758.896118,1151.373535 
	C759.170837,1154.327148 760.177979,1155.064941 762.891296,1154.214355 
	C767.786621,1152.680176 772.830627,1151.620605 778.180542,1150.594238 
	C781.813721,1151.217041 785.078918,1151.949707 788.344299,1151.950928 
	C939.896179,1152.007324 1091.448120,1152.000000 1243.000000,1152.000000 
z"/>
<path fill="#404B76" opacity="1.000000" stroke="none" 
	d="
M1243.000000,1689.536133 
	C829.309265,1690.000000 415.618500,1690.000000 1.463884,1690.000000 
	C1.000000,1664.642578 1.000000,1639.285156 1.459705,1613.463867 
	C415.612946,1613.000000 829.306458,1613.000000 1243.000000,1613.000000 
	C1243.000000,1638.357422 1243.000000,1663.714844 1243.000000,1689.536133 
z"/>
<path fill="#3E4C76" opacity="1.000000" stroke="none" 
	d="
M1243.000000,1460.000000 
	C1243.000000,1485.354248 1243.000000,1510.708496 1242.540283,1536.531372 
	C828.387024,1537.000000 414.693512,1537.000000 1.000000,1537.000000 
	C1.000000,1511.645752 1.000000,1486.291504 1.463884,1460.468628 
	C415.618500,1460.000000 829.309265,1460.000000 1243.000000,1460.000000 
z"/>
<path fill="#3F4B76" opacity="1.000000" stroke="none" 
	d="
M1.000000,1537.459717 
	C414.693512,1537.000000 828.387024,1537.000000 1242.540283,1537.000000 
	C1243.000000,1562.026855 1243.000000,1587.053711 1243.000000,1612.540283 
	C829.306458,1613.000000 415.612946,1613.000000 1.459705,1613.000000 
	C1.000000,1587.973145 1.000000,1562.946289 1.000000,1537.459717 
z"/>
<path fill="#384F76" opacity="1.000000" stroke="none" 
	d="
M1243.000000,1151.531372 
	C1091.448120,1152.000000 939.896179,1152.007324 788.344299,1151.950928 
	C785.078918,1151.949707 781.813721,1151.217041 778.502197,1150.449829 
	C783.308105,1148.332275 788.225586,1146.751709 793.001587,1144.821167 
	C815.330688,1135.794922 835.069214,1123.103638 848.840332,1102.856689 
	C867.152649,1075.932983 871.672729,1045.680176 867.642273,1014.118225 
	C862.850281,976.593140 846.587646,945.475342 813.829529,924.508057 
	C815.548218,923.686584 817.194031,922.505371 819.004883,922.138245 
	C821.086670,921.716248 823.314392,922.001892 825.478760,922.001831 
	C964.340088,921.999817 1103.201416,922.000000 1242.531372,922.000000 
	C1243.000000,998.354248 1243.000000,1074.708496 1243.000000,1151.531372 
z"/>
<path fill="#3D4C76" opacity="1.000000" stroke="none" 
	d="
M1243.000000,1459.536133 
	C829.309265,1460.000000 415.618500,1460.000000 1.463884,1460.000000 
	C1.000000,1434.975952 1.000000,1409.951782 1.468657,1384.463867 
	C75.501541,1383.999512 149.065781,1383.999023 222.709595,1384.461304 
	C222.789200,1392.823608 222.789200,1400.723022 222.789200,1408.652832 
	C227.681488,1408.652832 231.738373,1408.652832 236.514297,1408.652832 
	C236.514297,1400.541260 236.514297,1392.770630 236.950714,1385.000000 
	C244.474609,1384.999878 251.565826,1385.142456 258.648376,1384.955933 
	C264.545258,1384.800903 270.432007,1384.259644 276.580261,1384.166748 
	C279.083405,1391.414551 281.588104,1398.315796 283.482361,1405.380615 
	C284.693756,1409.898682 287.872101,1408.847290 290.874664,1409.041016 
	C294.131500,1409.251099 296.666321,1408.798584 297.781738,1405.041260 
	C300.046112,1397.413818 302.559753,1389.859131 305.046783,1382.299438 
	C308.015747,1373.274780 311.064392,1364.276245 314.296997,1354.613525 
	C315.081116,1355.948486 315.529175,1356.472046 315.723541,1357.077026 
	C320.802246,1372.882690 326.118347,1388.619751 330.761414,1404.552979 
	C332.286835,1409.787598 335.680420,1408.699707 339.175873,1409.075439 
	C342.900452,1409.475830 344.787323,1408.386353 345.847107,1404.511353 
	C347.754639,1397.536499 350.351166,1390.750000 353.075623,1384.021729 
	C362.239624,1384.438843 370.987946,1384.719238 379.807922,1385.463379 
	C379.879578,1393.490601 379.879578,1401.053955 379.879578,1408.642822 
	C384.370697,1408.642822 388.086975,1408.642822 392.492157,1408.642822 
	C392.492157,1400.527466 392.492157,1392.763794 392.929932,1385.000000 
	C401.562195,1384.999878 409.756683,1384.999878 418.032562,1385.451172 
	C418.169342,1388.564453 417.656189,1391.399902 418.404114,1393.850586 
	C419.760193,1398.293823 420.734711,1403.806152 423.888123,1406.557129 
	C431.298248,1413.021851 445.351868,1410.889648 452.830841,1402.885620 
	C449.440796,1402.140625 451.414215,1394.931641 445.228210,1397.698853 
	C435.146973,1402.208618 430.771698,1399.416870 430.849945,1388.480103 
	C430.858246,1387.319580 430.986786,1386.159912 431.524475,1385.000000 
	C441.960419,1385.000122 451.931488,1385.000122 462.053101,1385.338013 
	C462.686981,1386.711914 463.316864,1387.705444 463.632019,1388.790405 
	C470.882202,1413.749268 500.696899,1415.061035 516.086182,1401.868774 
	C518.463684,1399.830688 518.291321,1398.158325 516.545837,1395.979004 
	C513.776428,1392.521362 511.218597,1394.040283 508.386932,1395.964600 
	C495.028992,1405.042969 479.900604,1399.875732 476.526978,1384.998657 
	C482.981110,1384.999512 488.972717,1385.104858 494.959412,1384.978027 
	C507.248077,1384.717773 519.534180,1384.333130 531.885986,1384.464355 
	C531.950684,1392.844116 531.950684,1400.759277 531.950684,1408.633301 
	C536.480103,1408.633301 540.214111,1408.633301 544.392334,1408.633301 
	C544.392334,1393.650024 544.861389,1379.010864 544.196167,1364.423462 
	C543.859131,1357.031372 547.084229,1352.867432 552.814941,1349.722656 
	C562.199463,1344.573120 575.214661,1346.426880 577.926086,1359.048828 
	C578.478699,1361.621460 578.494141,1364.340210 578.506653,1366.992920 
	C578.562988,1378.971191 578.513855,1390.949707 578.543823,1402.928223 
	C578.548645,1404.841675 578.763611,1406.754639 578.901306,1408.990845 
	C582.426086,1408.990845 585.431396,1409.249023 588.348145,1408.853638 
	C589.397827,1408.711304 590.234375,1406.996948 591.626221,1406.000000 
	C603.372803,1406.333130 614.661255,1406.666260 625.910889,1407.352295 
	C621.927490,1416.101562 617.982971,1424.498169 614.193848,1433.218262 
	C618.116882,1436.946167 620.540161,1436.853760 624.345886,1433.078979 
	C626.125671,1431.273071 627.981812,1429.765015 628.920288,1427.815308 
	C632.415039,1420.554810 635.608459,1413.149170 639.254028,1405.936035 
	C640.079285,1406.181396 640.566101,1406.385376 641.051880,1406.382812 
	C663.857361,1406.266724 686.662720,1406.132568 709.546997,1406.439819 
	C710.351135,1407.576660 711.043396,1408.831299 711.807434,1408.876709 
	C715.400452,1409.090210 719.013184,1408.971680 723.239197,1408.971680 
	C723.239197,1400.237183 723.239197,1392.118164 723.692871,1383.999512 
	C747.056335,1383.999634 769.966125,1383.999634 792.947266,1384.463379 
	C793.018616,1392.846924 793.018616,1400.766357 793.018616,1408.673584 
	C797.604309,1408.673584 801.349304,1408.673584 805.932312,1408.673584 
	C805.932312,1400.236084 805.932312,1392.118286 806.405273,1384.000244 
	C813.102417,1384.066528 819.326660,1384.133179 825.416077,1384.588623 
	C821.252441,1397.890991 827.964539,1408.787354 840.738220,1409.946777 
	C849.169189,1410.712158 856.886230,1408.773804 863.651062,1403.508545 
	C865.024414,1402.439697 866.447510,1401.434692 868.005737,1400.283569 
	C870.684265,1409.465576 871.626465,1410.088745 880.090271,1408.142090 
	C880.090271,1400.202759 880.090271,1392.101196 880.553223,1383.999756 
	C889.368286,1383.666260 897.720337,1383.332520 906.269775,1383.294067 
	C909.140198,1389.583740 912.034424,1395.494263 914.358948,1401.620972 
	C915.109741,1403.599976 915.010315,1406.416260 914.189331,1408.386841 
	C910.801331,1416.519165 906.986938,1424.473755 903.091919,1433.013916 
	C906.065308,1433.013916 908.239075,1432.811401 910.360840,1433.057373 
	C914.393250,1433.524902 916.384277,1431.470459 917.844727,1428.029663 
	C924.227905,1412.989746 930.739502,1398.004517 937.615723,1383.033447 
	C945.998718,1383.044922 953.970581,1383.022339 962.053040,1383.372070 
	C965.297180,1389.799927 967.147400,1397.199219 971.810730,1401.652954 
	C984.567566,1413.836304 1005.159973,1412.292725 1018.720276,1402.584106 
	C1020.459473,1401.338745 1023.460693,1399.913696 1020.953064,1396.662964 
	C1018.949219,1394.065308 1016.832458,1392.314453 1013.398010,1394.238159 
	C1011.129333,1395.508667 1008.828491,1396.734741 1006.476746,1397.842041 
	C995.324463,1403.092896 980.121887,1400.019775 975.889893,1385.658203 
	C979.001282,1384.934082 981.729614,1384.082031 984.463501,1384.063965 
	C1002.680603,1383.943359 1020.898804,1384.000854 1039.221313,1384.459229 
	C1039.325928,1392.837769 1039.325928,1400.757446 1039.325928,1408.677002 
	C1044.014160,1408.677002 1047.763794,1408.677002 1052.150024,1408.677002 
	C1052.150024,1400.236938 1052.150024,1392.118164 1052.609375,1383.999756 
	C1116.379028,1384.000000 1179.689575,1384.000000 1243.000000,1384.000000 
	C1243.000000,1409.024048 1243.000000,1434.048218 1243.000000,1459.536133 
z"/>
<path fill="#3C4D76" opacity="1.000000" stroke="none" 
	d="
M1243.000000,1383.531372 
	C1179.689575,1384.000000 1116.379028,1384.000000 1052.542358,1383.535400 
	C1052.001953,1378.077026 1051.970703,1373.083374 1051.977173,1368.089722 
	C1051.991211,1357.295654 1059.182739,1350.003418 1069.776733,1350.001831 
	C1071.936646,1350.001465 1074.163330,1349.597778 1076.243530,1349.991211 
	C1081.618652,1351.007690 1081.047974,1346.816895 1081.810669,1343.898193 
	C1082.707520,1340.466919 1081.637207,1338.141724 1077.810181,1337.406616 
	C1069.627686,1335.835327 1062.628906,1337.801758 1057.048462,1344.112915 
	C1055.238647,1346.159546 1053.617310,1348.373047 1051.713379,1350.756104 
	C1048.714233,1336.871460 1048.714233,1336.871460 1039.116699,1338.869019 
	C1039.116699,1353.785034 1039.116699,1368.892700 1039.116699,1384.000488 
	C1020.898804,1384.000854 1002.680603,1383.943359 984.463501,1384.063965 
	C981.729614,1384.082031 979.001282,1384.934082 975.694763,1385.292480 
	C974.370605,1381.582886 973.622131,1377.981079 972.723267,1373.655640 
	C975.562683,1373.655640 977.520386,1373.655762 979.478088,1373.655518 
	C992.277344,1373.653931 1005.078003,1373.744141 1017.874023,1373.540527 
	C1019.584229,1373.513306 1022.647949,1372.150269 1022.758728,1371.148682 
	C1024.114990,1358.881958 1020.972839,1345.969727 1007.207886,1339.680542 
	C989.657227,1331.661621 969.192139,1340.831665 963.118164,1359.090820 
	C960.481873,1367.015869 960.430237,1374.937012 961.942444,1382.999756 
	C953.970581,1383.022339 945.998718,1383.044922 937.664917,1382.686035 
	C943.591309,1367.805664 949.879700,1353.307007 956.218323,1338.692383 
	C945.275818,1336.748779 944.457031,1337.162964 940.655518,1346.337280 
	C934.680725,1360.756470 928.719727,1375.181396 922.584167,1390.011841 
	C922.030273,1388.912598 921.635254,1388.231689 921.332397,1387.512085 
	C915.076172,1372.650024 908.754517,1357.814697 902.637207,1342.895508 
	C901.151733,1339.272705 898.953003,1337.644653 895.049744,1337.998779 
	C892.651306,1338.216553 890.217041,1338.039307 887.178772,1338.039307 
	C888.139099,1340.458618 888.770569,1342.142334 889.470337,1343.797241 
	C894.997009,1356.867676 900.536682,1369.932373 906.072388,1382.998901 
	C897.720337,1383.332520 889.368286,1383.666260 880.477600,1383.536377 
	C879.902039,1376.083130 880.075317,1369.084717 879.783936,1362.105591 
	C879.198486,1348.082642 871.849548,1338.727295 859.830688,1337.236206 
	C850.427673,1336.069580 841.388672,1337.525024 833.359680,1343.216187 
	C826.990967,1347.730225 826.806702,1348.179688 831.398193,1355.419556 
	C835.375122,1353.327759 839.284302,1350.912964 843.467346,1349.146606 
	C851.938538,1345.569702 864.839111,1346.462524 866.728210,1358.482178 
	C867.034912,1360.433594 866.750244,1362.474854 867.022217,1364.435425 
	C867.664001,1369.061035 865.270935,1370.049194 861.233704,1370.067383 
	C856.934082,1370.086792 852.610168,1370.536255 848.344849,1371.138062 
	C839.047607,1372.449707 830.918823,1375.956909 825.550903,1384.199707 
	C819.326660,1384.133179 813.102417,1384.066528 806.307617,1383.540283 
	C805.737122,1357.497437 805.737122,1331.914307 805.737122,1306.327148 
	C801.052856,1306.327148 797.298645,1306.327148 793.065613,1306.327148 
	C793.065613,1308.614014 793.070007,1310.575562 793.064880,1312.537109 
	C793.002747,1336.357910 792.939148,1360.178711 792.875977,1383.999512 
	C769.966125,1383.999634 747.056335,1383.999634 723.623657,1383.545654 
	C723.135132,1379.728394 723.169434,1376.365112 723.347656,1372.873779 
	C723.676697,1372.566772 723.846863,1372.374634 724.466797,1372.105469 
	C730.253479,1372.028809 735.600586,1372.339966 740.892212,1371.931763 
	C750.242126,1371.210205 759.251526,1368.999878 766.594299,1362.732178 
	C776.294067,1354.452393 777.517090,1343.257202 775.496460,1331.789673 
	C773.321960,1319.449097 764.678040,1311.880615 752.816223,1310.418823 
	C739.040466,1308.721191 724.983704,1309.293945 711.047302,1308.948120 
	C710.524414,1308.935181 709.984192,1309.623657 709.071167,1309.919678 
	C705.217957,1309.569336 701.745911,1309.040649 698.273315,1309.036987 
	C647.026306,1308.983032 595.779175,1308.998779 544.461182,1308.556885 
	C540.549805,1303.835938 536.139038,1305.966675 531.455200,1307.074463 
	C527.006592,1307.767212 522.932861,1308.884277 518.850525,1308.916626 
	C496.699158,1309.092285 474.545532,1308.963867 452.392883,1309.010864 
	C432.407867,1309.053101 412.423035,1309.186157 392.101990,1309.159180 
	C387.200562,1305.771606 383.000488,1306.544312 378.680573,1310.010986 
	C376.344940,1309.557983 374.388855,1309.042603 372.432251,1309.040771 
	C337.907349,1309.007690 303.382446,1309.037231 268.403046,1308.977295 
	C242.114716,1308.901245 216.280869,1308.901245 190.448090,1308.901245 
	C190.448090,1313.015869 190.448090,1316.266235 190.448090,1320.142456 
	C201.288345,1320.142456 211.823959,1320.142456 222.630005,1320.142456 
	C222.630005,1341.851318 222.630005,1362.924927 222.630005,1383.998535 
	C149.065781,1383.999023 75.501541,1383.999512 1.468657,1384.000000 
	C1.000000,1349.979126 1.000000,1315.958130 1.000000,1281.468628 
	C414.687592,1281.000000 828.375183,1281.000000 1242.531372,1281.000000 
	C1243.000000,1315.020874 1243.000000,1349.041870 1243.000000,1383.531372 
z"/>
<path fill="#394F76" opacity="1.000000" stroke="none" 
	d="
M439.999634,1152.245117 
	C438.342712,1153.143799 436.775116,1154.440063 435.005615,1154.837646 
	C432.941132,1155.301514 430.700195,1154.997559 428.535858,1154.997559 
	C286.336334,1155.000244 144.136826,1155.000000 1.468657,1155.000000 
	C1.000000,1102.979126 1.000000,1050.958252 1.000000,998.468628 
	C120.064156,998.000000 239.128311,997.991699 358.192444,998.046448 
	C361.299133,998.047852 364.405487,998.737915 367.812805,999.655457 
	C361.537323,1014.887268 357.636444,1030.047974 357.873138,1046.362305 
	C358.115662,1063.079712 361.422760,1079.022827 368.719238,1093.891968 
	C383.532074,1124.078247 407.015472,1144.062378 439.999634,1152.245117 
z"/>
<path fill="#000101" opacity="1.000000" stroke="none" 
	d="
M440.378876,1152.266479 
	C407.015472,1144.062378 383.532074,1124.078247 368.719238,1093.891968 
	C361.422760,1079.022827 358.115662,1063.079712 357.873138,1046.362305 
	C357.636444,1030.047974 361.537323,1014.887268 368.192627,999.873718 
	C384.574127,968.347412 411.745148,951.829895 444.673645,943.271057 
	C448.277283,942.334473 449.832977,940.656555 450.800323,937.220520 
	C463.266449,892.941223 490.298431,860.380371 531.772522,840.939880 
	C570.125977,822.962036 610.065979,821.055420 650.509094,834.324402 
	C689.390015,847.080811 718.302612,871.812317 738.048340,907.435913 
	C739.896606,910.770508 742.026794,911.469727 745.638916,911.218201 
	C769.267212,909.572876 792.291138,911.397522 813.494934,924.364380 
	C846.587646,945.475342 862.850281,976.593140 867.642273,1014.118225 
	C871.672729,1045.680176 867.152649,1075.932983 848.840332,1102.856689 
	C835.069214,1123.103638 815.330688,1135.794922 793.001587,1144.821167 
	C788.225586,1146.751709 783.308105,1148.332275 778.134216,1150.218506 
	C772.830627,1151.620605 767.786621,1152.680176 762.891296,1154.214355 
	C760.177979,1155.064941 759.170837,1154.327148 758.986328,1150.960205 
	C759.382385,1142.895508 760.031555,1135.615601 760.004211,1128.338379 
	C759.990723,1124.732422 760.958069,1123.266724 764.488953,1122.060547 
	C774.390625,1118.677612 784.405823,1115.330811 793.770752,1110.735718 
	C812.262207,1101.662598 826.103699,1087.787842 832.604126,1067.808838 
	C841.694580,1039.868896 840.410522,1012.224609 828.134277,985.486145 
	C813.852783,954.380188 787.002380,938.732544 752.955322,941.103271 
	C732.995911,942.493103 715.057617,949.651855 698.690125,960.905640 
	C692.262451,965.325134 686.070557,970.087341 679.400513,974.964600 
	C672.813538,967.435364 666.298828,959.988708 659.655334,952.394836 
	C674.464172,937.849365 691.813782,928.418640 709.831909,919.653931 
	C699.809143,901.909424 686.572754,887.840698 669.906738,877.106506 
	C647.253113,862.515991 622.422180,855.966492 595.419617,856.933838 
	C558.460266,858.257812 527.548889,872.046143 503.543182,900.427795 
	C488.152496,918.623901 480.064941,940.122192 476.221497,963.352478 
	C475.588470,967.178650 473.979340,968.593628 470.218872,969.154480 
	C455.661804,971.325867 441.625244,975.240112 428.265991,981.674561 
	C392.303131,998.995972 379.031036,1040.917725 394.821899,1076.686279 
	C408.493652,1108.395630 432.414673,1124.271973 466.003479,1124.309326 
	C466.003479,1128.886719 465.891693,1133.000366 466.030701,1137.105347 
	C466.220978,1142.723145 466.601837,1148.334473 466.901001,1153.948486 
	C457.973480,1156.751709 449.406219,1153.883423 440.378876,1152.266479 
z"/>
<path fill="#375076" opacity="1.000000" stroke="none" 
	d="
M394.763763,1076.336426 
	C379.031036,1040.917725 392.303131,998.995972 428.265991,981.674561 
	C441.625244,975.240112 455.661804,971.325867 470.218872,969.154480 
	C473.979340,968.593628 475.588470,967.178650 476.221497,963.352478 
	C480.064941,940.122192 488.152496,918.623901 503.543182,900.427795 
	C527.548889,872.046143 558.460266,858.257812 595.419617,856.933838 
	C622.422180,855.966492 647.253113,862.515991 669.906738,877.106506 
	C686.572754,887.840698 699.809143,901.909424 709.831909,919.653931 
	C691.813782,928.418640 674.464172,937.849365 659.655334,952.394836 
	C666.298828,959.988708 672.813538,967.435364 679.400513,974.964600 
	C686.070557,970.087341 692.262451,965.325134 698.690125,960.905640 
	C715.057617,949.651855 732.995911,942.493103 752.955322,941.103271 
	C787.002380,938.732544 813.852783,954.380188 828.134277,985.486145 
	C840.410522,1012.224609 841.694580,1039.868896 832.604126,1067.808838 
	C826.103699,1087.787842 812.262207,1101.662598 793.770752,1110.735718 
	C784.405823,1115.330811 774.390625,1118.677612 764.488953,1122.060547 
	C760.958069,1123.266724 759.990723,1124.732422 760.004211,1128.338379 
	C760.031555,1135.615601 759.382385,1142.895508 758.921936,1150.587646 
	C748.569824,1151.000732 738.307983,1151.000366 727.548645,1150.571167 
	C726.681641,1138.709473 727.628113,1127.052490 725.724365,1115.881104 
	C715.121399,1053.661743 654.737244,1009.169067 586.979187,1024.734741 
	C556.241699,1031.795898 532.555359,1049.650269 515.112793,1076.099976 
	C512.223633,1075.633179 509.763641,1075.049072 507.302643,1075.044922 
	C472.210419,1074.985107 437.117981,1074.977783 402.025848,1075.061157 
	C399.604156,1075.066895 397.184418,1075.892212 394.763763,1076.336426 
z"/>
<path fill="#000000" opacity="1.000000" stroke="none" 
	d="
M515.541443,1076.252441 
	C532.555359,1049.650269 556.241699,1031.795898 586.979187,1024.734741 
	C654.737244,1009.169067 715.121399,1053.661743 725.724365,1115.881104 
	C727.628113,1127.052490 726.681641,1138.709473 727.087769,1150.571533 
	C724.155334,1166.932373 719.541809,1182.373657 710.559631,1195.968994 
	C686.738220,1232.025024 653.233887,1250.295898 609.752319,1249.894653 
	C588.153992,1249.695312 568.533386,1243.025757 550.568481,1231.614136 
	C531.382385,1219.426636 517.525940,1202.303345 508.514801,1181.546265 
	C504.932983,1173.295532 502.963989,1164.344849 500.218933,1154.922852 
	C499.824371,1149.486450 499.334778,1144.845581 499.141968,1140.192505 
	C498.191162,1117.243774 504.024536,1096.014160 515.541443,1076.252441 
M584.109680,1141.500000 
	C584.115967,1143.997070 584.116638,1146.494019 584.129456,1148.991089 
	C584.176392,1158.145996 583.906677,1167.317017 584.363647,1176.451538 
	C584.853760,1186.249756 591.098877,1189.175781 599.407837,1183.916260 
	C600.953430,1182.937744 602.433716,1181.854980 603.932434,1180.803589 
	C618.647095,1170.480103 633.372681,1160.171997 648.062866,1149.813477 
	C651.731445,1147.226685 655.481384,1144.699585 658.841919,1141.744751 
	C663.565613,1137.591187 663.330750,1132.855713 658.225830,1129.234985 
	C638.541992,1115.273682 618.785889,1101.414062 599.011047,1087.581787 
	C595.630005,1085.216919 591.329773,1083.149902 587.984558,1086.067017 
	C585.664795,1088.089844 584.257812,1092.289795 584.179443,1095.558716 
	C583.820557,1110.531128 584.073730,1125.518188 584.109680,1141.500000 
z"/>
<path fill="#394F76" opacity="1.000000" stroke="none" 
	d="
M515.112793,1076.099976 
	C504.024536,1096.014160 498.191162,1117.243774 499.141968,1140.192505 
	C499.334778,1144.845581 499.824371,1149.486450 500.054504,1154.566406 
	C489.188446,1154.738770 478.445038,1154.477539 467.301331,1154.082397 
	C466.601837,1148.334473 466.220978,1142.723145 466.030701,1137.105347 
	C465.891693,1133.000366 466.003479,1128.886719 466.003479,1124.309326 
	C432.414673,1124.271973 408.493652,1108.395630 394.821899,1076.686279 
	C397.184418,1075.892212 399.604156,1075.066895 402.025848,1075.061157 
	C437.117981,1074.977783 472.210419,1074.985107 507.302643,1075.044922 
	C509.763641,1075.049072 512.223633,1075.633179 515.112793,1076.099976 
z"/>
<path fill="#3C4D76" opacity="1.000000" stroke="none" 
	d="
M268.857513,1309.053223 
	C303.382446,1309.037231 337.907349,1309.007690 372.432251,1309.040771 
	C374.388855,1309.042603 376.344940,1309.557983 378.504089,1310.334351 
	C375.961884,1316.210571 376.536194,1319.648682 380.560364,1323.054565 
	C384.518219,1326.404419 388.217041,1324.962402 391.720978,1322.450195 
	C395.842957,1319.494507 395.996704,1315.033447 392.438141,1309.279297 
	C412.423035,1309.186157 432.407867,1309.053101 452.392883,1309.010864 
	C474.545532,1308.963867 496.699158,1309.092285 518.850525,1308.916626 
	C522.932861,1308.884277 527.006592,1307.767212 531.518921,1307.539429 
	C531.909485,1333.285156 531.865356,1358.642456 531.821289,1383.999634 
	C519.534180,1384.333130 507.248077,1384.717773 494.959412,1384.978027 
	C488.972717,1385.104858 482.981110,1384.999512 476.294739,1384.677490 
	C475.220795,1382.932007 474.724121,1381.527954 474.486664,1380.081299 
	C473.138794,1371.870239 473.971039,1363.892578 477.956421,1356.531250 
	C483.612640,1346.083740 496.341309,1343.645874 508.580383,1351.062256 
	C511.917725,1353.084595 513.575195,1352.214111 515.449036,1349.766846 
	C516.237427,1348.737183 516.839233,1347.564819 517.788269,1346.033936 
	C515.994019,1344.643433 514.328369,1342.992554 512.357727,1341.884521 
	C500.968353,1335.480469 489.179443,1334.874512 477.749939,1341.228760 
	C466.195526,1347.652588 461.740601,1358.659302 461.074890,1371.306274 
	C460.836060,1375.843750 461.597565,1380.434082 461.902527,1385.000244 
	C451.931488,1385.000122 441.960419,1385.000122 431.444214,1384.537231 
	C430.899078,1372.461548 430.899078,1360.848755 430.899078,1348.527466 
	C437.868713,1348.527466 444.262817,1348.527466 450.747986,1348.527466 
	C450.747986,1345.211304 450.747986,1342.613281 450.747986,1339.438354 
	C445.340546,1339.438354 440.196381,1339.263306 435.070709,1339.496094 
	C431.279907,1339.668213 429.705719,1338.559570 429.923492,1334.456665 
	C430.262787,1328.064209 430.013245,1321.640381 430.013245,1315.321655 
	C422.147827,1314.762695 422.099976,1314.755127 420.984711,1321.771484 
	C420.440735,1325.193604 419.833710,1328.643799 419.752380,1332.092896 
	C419.620941,1337.667969 417.609070,1340.729370 411.473663,1340.250854 
	C408.447571,1340.015015 406.714600,1341.486450 406.947327,1345.095337 
	C407.173340,1348.599854 408.937286,1349.221313 411.837402,1349.035156 
	C413.771240,1348.910889 415.719574,1349.011475 417.951141,1349.011475 
	C417.951141,1361.426392 417.951141,1373.213257 417.951141,1385.000000 
	C409.756683,1384.999878 401.562195,1384.999878 392.842285,1384.538452 
	C392.316803,1368.885010 392.316803,1353.692871 392.316803,1338.424072 
	C387.743805,1338.424072 384.037415,1338.424072 379.736237,1338.424072 
	C379.736237,1354.195068 379.736237,1369.597290 379.736237,1384.999512 
	C370.987946,1384.719238 362.239624,1384.438843 353.160706,1383.641602 
	C357.539612,1368.273193 362.249084,1353.421509 367.103912,1338.111450 
	C363.581238,1338.111450 360.592712,1337.907959 357.656799,1338.212280 
	C356.490845,1338.333130 354.950806,1339.333862 354.435394,1340.362305 
	C353.122345,1342.982300 352.125946,1345.795044 351.294495,1348.616577 
	C347.136719,1362.726929 343.072723,1376.864990 338.737183,1390.875244 
	C338.029938,1390.504761 337.561279,1390.252319 336.940125,1389.653809 
	C331.862640,1373.930786 326.836212,1358.585205 322.085205,1343.154663 
	C320.920685,1339.372559 319.101868,1337.883057 315.053436,1337.850342 
	C310.799408,1337.816040 308.586273,1339.326172 307.618500,1343.383789 
	C306.974213,1346.085083 305.815430,1348.660278 304.953888,1351.313721 
	C300.656281,1364.549805 296.380768,1377.793091 291.854980,1390.905518 
	C291.128571,1390.518066 290.644714,1390.259033 290.048645,1389.622070 
	C285.262543,1373.431763 280.679962,1357.590942 275.773529,1341.851074 
	C275.282623,1340.276245 272.978455,1338.605469 271.244995,1338.230103 
	C268.459442,1337.627075 265.447723,1338.068359 262.039612,1338.068359 
	C264.063568,1344.939697 265.781464,1351.098145 267.696106,1357.195068 
	C270.497833,1366.116455 273.440613,1374.993408 276.323242,1383.889404 
	C270.432007,1384.259644 264.545258,1384.800903 258.648376,1384.955933 
	C251.565826,1385.142456 244.474609,1384.999878 236.862732,1384.538330 
	C236.338318,1362.857544 236.338318,1341.638184 236.338318,1319.911011 
	C247.484726,1319.911011 257.892090,1319.911011 268.857513,1319.911011 
	C268.857513,1315.958862 268.857513,1312.506104 268.857513,1309.053223 
z"/>
<path fill="#3C4D76" opacity="1.000000" stroke="none" 
	d="
M544.532104,1308.998047 
	C595.779175,1308.998779 647.026306,1308.983032 698.273315,1309.036987 
	C701.745911,1309.040649 705.217957,1309.569336 709.133667,1310.385498 
	C709.540833,1342.611572 709.504456,1374.306030 709.468140,1406.000488 
	C686.662720,1406.132568 663.857361,1406.266724 641.051880,1406.382812 
	C640.566101,1406.385376 640.079285,1406.181396 639.289978,1405.573975 
	C648.433105,1382.953979 657.879211,1360.834106 667.400696,1338.537598 
	C655.768372,1337.041016 655.745605,1337.056152 651.586365,1347.104980 
	C650.187744,1350.483887 648.766479,1353.853516 647.370850,1357.233643 
	C642.948853,1367.943481 638.534058,1378.656250 633.834900,1390.050537 
	C633.248291,1388.836060 632.972656,1388.324463 632.747864,1387.791504 
	C626.481750,1372.934814 620.307068,1358.038330 613.858398,1343.261353 
	C612.977173,1341.241943 610.976196,1338.792236 609.068481,1338.341797 
	C605.675537,1337.540649 601.957336,1338.116577 597.985413,1338.116577 
	C607.291504,1359.372803 616.376343,1379.996338 625.287170,1400.694702 
	C626.084961,1402.547852 625.755615,1404.886353 625.949707,1406.999390 
	C614.661255,1406.666260 603.372803,1406.333130 591.562073,1405.535156 
	C590.693542,1388.984741 590.515991,1372.893188 589.935608,1356.816040 
	C589.604675,1347.647339 583.091248,1340.120117 574.203674,1337.884155 
	C565.247070,1335.630615 557.071838,1337.452637 549.692017,1342.956909 
	C548.292664,1344.000488 546.912903,1345.070312 544.532104,1346.883667 
	C544.532104,1333.450928 544.532104,1321.224487 544.532104,1308.998047 
z"/>
<path fill="#E7B589" opacity="1.000000" stroke="none" 
	d="
M276.580292,1384.166748 
	C273.440613,1374.993408 270.497833,1366.116455 267.696106,1357.195068 
	C265.781464,1351.098145 264.063568,1344.939697 262.039612,1338.068359 
	C265.447723,1338.068359 268.459442,1337.627075 271.244995,1338.230103 
	C272.978455,1338.605469 275.282623,1340.276245 275.773529,1341.851074 
	C280.679962,1357.590942 285.262543,1373.431763 289.997681,1389.979126 
	C290.241211,1391.688110 290.423492,1392.662231 290.605774,1393.636230 
	C290.874634,1393.631226 291.143524,1393.626099 291.412415,1393.621094 
	C291.640747,1392.758667 291.869110,1391.896362 292.097473,1391.033936 
	C296.380768,1377.793091 300.656281,1364.549805 304.953888,1351.313721 
	C305.815430,1348.660278 306.974213,1346.085083 307.618500,1343.383789 
	C308.586273,1339.326172 310.799408,1337.816040 315.053436,1337.850342 
	C319.101868,1337.883057 320.920685,1339.372559 322.085205,1343.154663 
	C326.836212,1358.585205 331.862640,1373.930786 336.916138,1389.960327 
	C337.402222,1391.630493 337.759735,1392.647949 338.556641,1394.916138 
	C338.789917,1392.732300 338.882812,1391.862793 338.975739,1390.993286 
	C343.072723,1376.864990 347.136719,1362.726929 351.294495,1348.616577 
	C352.125946,1345.795044 353.122345,1342.982300 354.435394,1340.362305 
	C354.950806,1339.333862 356.490845,1338.333130 357.656799,1338.212280 
	C360.592712,1337.907959 363.581238,1338.111450 367.103912,1338.111450 
	C362.249084,1353.421509 357.539612,1368.273193 352.744995,1383.504883 
	C350.351166,1390.750000 347.754639,1397.536499 345.847107,1404.511353 
	C344.787323,1408.386353 342.900452,1409.475830 339.175873,1409.075439 
	C335.680420,1408.699707 332.286835,1409.787598 330.761414,1404.552979 
	C326.118347,1388.619751 320.802246,1372.882690 315.723541,1357.077026 
	C315.529175,1356.472046 315.081116,1355.948486 314.296997,1354.613525 
	C311.064392,1364.276245 308.015747,1373.274780 305.046783,1382.299438 
	C302.559753,1389.859131 300.046112,1397.413818 297.781738,1405.041260 
	C296.666321,1408.798584 294.131500,1409.251099 290.874664,1409.041016 
	C287.872101,1408.847290 284.693756,1409.898682 283.482361,1405.380615 
	C281.588104,1398.315796 279.083405,1391.414551 276.580292,1384.166748 
z"/>
<path fill="#EBB78A" opacity="1.000000" stroke="none" 
	d="
M709.546936,1406.439819 
	C709.504456,1374.306030 709.540833,1342.611572 709.514648,1310.451172 
	C709.984192,1309.623657 710.524414,1308.935181 711.047302,1308.948120 
	C724.983704,1309.293945 739.040466,1308.721191 752.816223,1310.418823 
	C764.678040,1311.880615 773.321960,1319.449097 775.496460,1331.789673 
	C777.517090,1343.257202 776.294067,1354.452393 766.594299,1362.732178 
	C759.251526,1368.999878 750.242126,1371.210205 740.892212,1371.931763 
	C735.600586,1372.339966 730.253479,1372.028809 724.225464,1372.107910 
	C723.174988,1372.358643 723.069763,1372.634521 723.203735,1373.001709 
	C723.169434,1376.365112 723.135132,1379.728394 723.170044,1383.545532 
	C723.239197,1392.118164 723.239197,1400.237183 723.239197,1408.971680 
	C719.013184,1408.971680 715.400452,1409.090210 711.807434,1408.876709 
	C711.043396,1408.831299 710.351135,1407.576660 709.546936,1406.439819 
M745.109863,1319.971558 
	C737.863464,1319.971558 730.617126,1319.971558 723.369751,1319.971558 
	C723.369751,1334.038452 723.369751,1347.271851 723.369751,1361.366333 
	C730.951050,1360.936523 738.262878,1361.067261 745.392822,1359.992065 
	C756.537048,1358.311401 763.042908,1350.851807 762.919250,1340.370361 
	C762.787048,1329.168579 758.115723,1322.053223 745.109863,1319.971558 
z"/>
<path fill="#EBB78A" opacity="1.000000" stroke="none" 
	d="
M544.461182,1308.556885 
	C544.532104,1321.224487 544.532104,1333.450928 544.532104,1346.883667 
	C546.912903,1345.070312 548.292664,1344.000488 549.692017,1342.956909 
	C557.071838,1337.452637 565.247070,1335.630615 574.203674,1337.884155 
	C583.091248,1340.120117 589.604675,1347.647339 589.935608,1356.816040 
	C590.515991,1372.893188 590.693542,1388.984741 591.104004,1405.535156 
	C590.234375,1406.996948 589.397827,1408.711304 588.348145,1408.853638 
	C585.431396,1409.249023 582.426086,1408.990845 578.901306,1408.990845 
	C578.763611,1406.754639 578.548645,1404.841675 578.543823,1402.928223 
	C578.513855,1390.949707 578.562988,1378.971191 578.506653,1366.992920 
	C578.494141,1364.340210 578.478699,1361.621460 577.926086,1359.048828 
	C575.214661,1346.426880 562.199463,1344.573120 552.814941,1349.722656 
	C547.084229,1352.867432 543.859131,1357.031372 544.196167,1364.423462 
	C544.861389,1379.010864 544.392334,1393.650024 544.392334,1408.633301 
	C540.214111,1408.633301 536.480103,1408.633301 531.950684,1408.633301 
	C531.950684,1400.759277 531.950684,1392.844116 531.885986,1384.464355 
	C531.865356,1358.642456 531.909485,1333.285156 531.889832,1307.463013 
	C536.139038,1305.966675 540.549805,1303.835938 544.461182,1308.556885 
z"/>
<path fill="#E9B68A" opacity="1.000000" stroke="none" 
	d="
M962.053040,1383.372070 
	C960.430237,1374.937012 960.481873,1367.015869 963.118164,1359.090820 
	C969.192139,1340.831665 989.657227,1331.661621 1007.207886,1339.680542 
	C1020.972839,1345.969727 1024.114990,1358.881958 1022.758728,1371.148682 
	C1022.647949,1372.150269 1019.584229,1373.513306 1017.874023,1373.540527 
	C1005.078003,1373.744141 992.277344,1373.653931 979.478088,1373.655518 
	C977.520386,1373.655762 975.562683,1373.655640 972.723267,1373.655640 
	C973.622131,1377.981079 974.370605,1381.582886 975.314209,1385.550415 
	C980.121887,1400.019775 995.324463,1403.092896 1006.476746,1397.842041 
	C1008.828491,1396.734741 1011.129333,1395.508667 1013.398010,1394.238159 
	C1016.832458,1392.314453 1018.949219,1394.065308 1020.953064,1396.662964 
	C1023.460693,1399.913696 1020.459473,1401.338745 1018.720276,1402.584106 
	C1005.159973,1412.292725 984.567566,1413.836304 971.810730,1401.652954 
	C967.147400,1397.199219 965.297180,1389.799927 962.053040,1383.372070 
M975.977112,1365.857178 
	C987.899231,1365.857178 999.821289,1365.857178 1011.650391,1365.857178 
	C1013.402954,1353.834717 1004.704529,1345.110229 991.780212,1346.304077 
	C981.892395,1347.217407 976.455750,1353.259888 974.198547,1365.440552 
	C974.381470,1365.796143 974.664368,1365.916260 975.977112,1365.857178 
z"/>
<path fill="#E9B68A" opacity="1.000000" stroke="none" 
	d="
M825.416077,1384.588623 
	C830.918823,1375.956909 839.047607,1372.449707 848.344849,1371.138062 
	C852.610168,1370.536255 856.934082,1370.086792 861.233704,1370.067383 
	C865.270935,1370.049194 867.664001,1369.061035 867.022217,1364.435425 
	C866.750244,1362.474854 867.034912,1360.433594 866.728210,1358.482178 
	C864.839111,1346.462524 851.938538,1345.569702 843.467346,1349.146606 
	C839.284302,1350.912964 835.375122,1353.327759 831.398193,1355.419556 
	C826.806702,1348.179688 826.990967,1347.730225 833.359680,1343.216187 
	C841.388672,1337.525024 850.427673,1336.069580 859.830688,1337.236206 
	C871.849548,1338.727295 879.198486,1348.082642 879.783936,1362.105591 
	C880.075317,1369.084717 879.902039,1376.083130 880.014648,1383.536255 
	C880.090271,1392.101196 880.090271,1400.202759 880.090271,1408.142090 
	C871.626465,1410.088745 870.684265,1409.465576 868.005737,1400.283569 
	C866.447510,1401.434692 865.024414,1402.439697 863.651062,1403.508545 
	C856.886230,1408.773804 849.169189,1410.712158 840.738220,1409.946777 
	C827.964539,1408.787354 821.252441,1397.890991 825.416077,1384.588623 
M854.872009,1378.094849 
	C850.161438,1379.614136 845.099182,1380.485718 840.823730,1382.806519 
	C834.589294,1386.190674 834.355225,1395.138184 839.815918,1399.189819 
	C846.280701,1403.986084 863.350159,1399.735229 866.712952,1392.473511 
	C866.914307,1392.038574 866.963074,1391.500854 866.965149,1391.010620 
	C866.983643,1386.553589 866.975952,1382.096436 866.975952,1377.256348 
	C862.879028,1377.532715 859.315857,1377.773071 854.872009,1378.094849 
z"/>
<path fill="#ECB88A" opacity="1.000000" stroke="none" 
	d="
M268.403046,1308.977295 
	C268.857513,1312.506104 268.857513,1315.958862 268.857513,1319.911011 
	C257.892090,1319.911011 247.484726,1319.911011 236.338318,1319.911011 
	C236.338318,1341.638184 236.338318,1362.857544 236.426300,1384.538574 
	C236.514297,1392.770630 236.514297,1400.541260 236.514297,1408.652832 
	C231.738373,1408.652832 227.681488,1408.652832 222.789200,1408.652832 
	C222.789200,1400.723022 222.789200,1392.823608 222.709595,1384.461304 
	C222.630005,1362.924927 222.630005,1341.851318 222.630005,1320.142456 
	C211.823959,1320.142456 201.288345,1320.142456 190.448090,1320.142456 
	C190.448090,1316.266235 190.448090,1313.015869 190.448090,1308.901245 
	C216.280869,1308.901245 242.114716,1308.901245 268.403046,1308.977295 
z"/>
<path fill="#E8B589" opacity="1.000000" stroke="none" 
	d="
M906.269775,1383.294067 
	C900.536682,1369.932373 894.997009,1356.867676 889.470337,1343.797241 
	C888.770569,1342.142334 888.139099,1340.458618 887.178772,1338.039307 
	C890.217041,1338.039307 892.651306,1338.216553 895.049744,1337.998779 
	C898.953003,1337.644653 901.151733,1339.272705 902.637207,1342.895508 
	C908.754517,1357.814697 915.076172,1372.650024 921.332397,1387.512085 
	C921.635254,1388.231689 922.030273,1388.912598 922.584167,1390.011841 
	C928.719727,1375.181396 934.680725,1360.756470 940.655518,1346.337280 
	C944.457031,1337.162964 945.275818,1336.748779 956.218323,1338.692383 
	C949.879700,1353.307007 943.591309,1367.805664 937.253723,1382.651855 
	C930.739502,1398.004517 924.227905,1412.989746 917.844727,1428.029663 
	C916.384277,1431.470459 914.393250,1433.524902 910.360840,1433.057373 
	C908.239075,1432.811401 906.065308,1433.013916 903.091919,1433.013916 
	C906.986938,1424.473755 910.801331,1416.519165 914.189331,1408.386841 
	C915.010315,1406.416260 915.109741,1403.599976 914.358948,1401.620972 
	C912.034424,1395.494263 909.140198,1389.583740 906.269775,1383.294067 
z"/>
<path fill="#E8B589" opacity="1.000000" stroke="none" 
	d="
M625.910889,1407.352295 
	C625.755615,1404.886353 626.084961,1402.547852 625.287170,1400.694702 
	C616.376343,1379.996338 607.291504,1359.372803 597.985413,1338.116577 
	C601.957336,1338.116577 605.675537,1337.540649 609.068481,1338.341797 
	C610.976196,1338.792236 612.977173,1341.241943 613.858398,1343.261353 
	C620.307068,1358.038330 626.481750,1372.934814 632.747864,1387.791504 
	C632.972656,1388.324463 633.248291,1388.836060 633.834900,1390.050537 
	C638.534058,1378.656250 642.948853,1367.943481 647.370850,1357.233643 
	C648.766479,1353.853516 650.187744,1350.483887 651.586365,1347.104980 
	C655.745605,1337.056152 655.768372,1337.041016 667.400696,1338.537598 
	C657.879211,1360.834106 648.433105,1382.953979 638.951050,1405.436035 
	C635.608459,1413.149170 632.415039,1420.554810 628.920288,1427.815308 
	C627.981812,1429.765015 626.125671,1431.273071 623.896362,1433.016724 
	C620.080811,1432.998047 617.059570,1432.946411 614.038391,1432.894653 
	C617.982971,1424.498169 621.927490,1416.101562 625.910889,1407.352295 
z"/>
<path fill="#E8B589" opacity="1.000000" stroke="none" 
	d="
M418.032562,1385.451172 
	C417.951141,1373.213257 417.951141,1361.426392 417.951141,1349.011475 
	C415.719574,1349.011475 413.771240,1348.910889 411.837402,1349.035156 
	C408.937286,1349.221313 407.173340,1348.599854 406.947327,1345.095337 
	C406.714600,1341.486450 408.447571,1340.015015 411.473663,1340.250854 
	C417.609070,1340.729370 419.620941,1337.667969 419.752380,1332.092896 
	C419.833710,1328.643799 420.440735,1325.193604 420.984711,1321.771484 
	C422.099976,1314.755127 422.147827,1314.762695 430.013245,1315.321655 
	C430.013245,1321.640381 430.262787,1328.064209 429.923492,1334.456665 
	C429.705719,1338.559570 431.279907,1339.668213 435.070709,1339.496094 
	C440.196381,1339.263306 445.340546,1339.438354 450.747986,1339.438354 
	C450.747986,1342.613281 450.747986,1345.211304 450.747986,1348.527466 
	C444.262817,1348.527466 437.868713,1348.527466 430.899078,1348.527466 
	C430.899078,1360.848755 430.899078,1372.461548 430.979309,1384.537109 
	C430.986786,1386.159912 430.858246,1387.319580 430.849945,1388.480103 
	C430.771698,1399.416870 435.146973,1402.208618 445.228210,1397.698853 
	C451.414215,1394.931641 449.440796,1402.140625 452.830841,1402.885620 
	C445.351868,1410.889648 431.298248,1413.021851 423.888123,1406.557129 
	C420.734711,1403.806152 419.760193,1398.293823 418.404114,1393.850586 
	C417.656189,1391.399902 418.169342,1388.564453 418.032562,1385.451172 
z"/>
<path fill="#E8B589" opacity="1.000000" stroke="none" 
	d="
M462.053101,1385.338013 
	C461.597565,1380.434082 460.836060,1375.843750 461.074890,1371.306274 
	C461.740601,1358.659302 466.195526,1347.652588 477.749939,1341.228760 
	C489.179443,1334.874512 500.968353,1335.480469 512.357727,1341.884521 
	C514.328369,1342.992554 515.994019,1344.643433 517.788269,1346.033936 
	C516.839233,1347.564819 516.237427,1348.737183 515.449036,1349.766846 
	C513.575195,1352.214111 511.917725,1353.084595 508.580383,1351.062256 
	C496.341309,1343.645874 483.612640,1346.083740 477.956421,1356.531250 
	C473.971039,1363.892578 473.138794,1371.870239 474.486664,1380.081299 
	C474.724121,1381.527954 475.220795,1382.932007 475.829956,1384.676880 
	C479.900604,1399.875732 495.028992,1405.042969 508.386932,1395.964600 
	C511.218597,1394.040283 513.776428,1392.521362 516.545837,1395.979004 
	C518.291321,1398.158325 518.463684,1399.830688 516.086182,1401.868774 
	C500.696899,1415.061035 470.882202,1413.749268 463.632019,1388.790405 
	C463.316864,1387.705444 462.686981,1386.711914 462.053101,1385.338013 
z"/>
<path fill="#EAB78A" opacity="1.000000" stroke="none" 
	d="
M792.947266,1384.463379 
	C792.939148,1360.178711 793.002747,1336.357910 793.064880,1312.537109 
	C793.070007,1310.575562 793.065613,1308.614014 793.065613,1306.327148 
	C797.298645,1306.327148 801.052856,1306.327148 805.737122,1306.327148 
	C805.737122,1331.914307 805.737122,1357.497437 805.834717,1383.540405 
	C805.932312,1392.118286 805.932312,1400.236084 805.932312,1408.673584 
	C801.349304,1408.673584 797.604309,1408.673584 793.018616,1408.673584 
	C793.018616,1400.766357 793.018616,1392.846924 792.947266,1384.463379 
z"/>
<path fill="#EAB78A" opacity="1.000000" stroke="none" 
	d="
M1039.221313,1384.459229 
	C1039.116699,1368.892700 1039.116699,1353.785034 1039.116699,1338.869019 
	C1048.714233,1336.871460 1048.714233,1336.871460 1051.713379,1350.756104 
	C1053.617310,1348.373047 1055.238647,1346.159546 1057.048462,1344.112915 
	C1062.628906,1337.801758 1069.627686,1335.835327 1077.810181,1337.406616 
	C1081.637207,1338.141724 1082.707520,1340.466919 1081.810669,1343.898193 
	C1081.047974,1346.816895 1081.618652,1351.007690 1076.243530,1349.991211 
	C1074.163330,1349.597778 1071.936646,1350.001465 1069.776733,1350.001831 
	C1059.182739,1350.003418 1051.991211,1357.295654 1051.977173,1368.089722 
	C1051.970703,1373.083374 1052.001953,1378.077026 1052.083008,1383.535156 
	C1052.150024,1392.118164 1052.150024,1400.236938 1052.150024,1408.677002 
	C1047.763794,1408.677002 1044.014160,1408.677002 1039.325928,1408.677002 
	C1039.325928,1400.757446 1039.325928,1392.837769 1039.221313,1384.459229 
z"/>
<path fill="#ECB88A" opacity="1.000000" stroke="none" 
	d="
M379.807922,1385.463379 
	C379.736237,1369.597290 379.736237,1354.195068 379.736237,1338.424072 
	C384.037415,1338.424072 387.743805,1338.424072 392.316803,1338.424072 
	C392.316803,1353.692871 392.316803,1368.885010 392.404480,1384.538574 
	C392.492157,1392.763794 392.492157,1400.527466 392.492157,1408.642822 
	C388.086975,1408.642822 384.370697,1408.642822 379.879578,1408.642822 
	C379.879578,1401.053955 379.879578,1393.490601 379.807922,1385.463379 
z"/>
<path fill="#3E4C76" opacity="1.000000" stroke="none" 
	d="
M614.193848,1433.218262 
	C617.059570,1432.946411 620.080811,1432.998047 623.551514,1433.111938 
	C620.540161,1436.853760 618.116882,1436.946167 614.193848,1433.218262 
z"/>
<path fill="#EAB78A" opacity="1.000000" stroke="none" 
	d="
M392.101990,1309.159180 
	C395.996704,1315.033447 395.842957,1319.494507 391.720978,1322.450195 
	C388.217041,1324.962402 384.518219,1326.404419 380.560364,1323.054565 
	C376.536194,1319.648682 375.961884,1316.210571 378.883392,1310.510986 
	C383.000488,1306.544312 387.200562,1305.771606 392.101990,1309.159180 
z"/>
<path fill="#4D5677" opacity="1.000000" stroke="none" 
	d="
M723.347656,1372.873779 
	C723.069763,1372.634521 723.174988,1372.358643 723.760864,1372.171753 
	C723.846863,1372.374634 723.676697,1372.566772 723.347656,1372.873779 
z"/>
<path fill="#394E75" opacity="1.000000" stroke="none" 
	d="
M584.108398,1141.000000 
	C584.073730,1125.518188 583.820557,1110.531128 584.179443,1095.558716 
	C584.257812,1092.289795 585.664795,1088.089844 587.984558,1086.067017 
	C591.329773,1083.149902 595.630005,1085.216919 599.011047,1087.581787 
	C618.785889,1101.414062 638.541992,1115.273682 658.225830,1129.234985 
	C663.330750,1132.855713 663.565613,1137.591187 658.841919,1141.744751 
	C655.481384,1144.699585 651.731445,1147.226685 648.062866,1149.813477 
	C633.372681,1160.171997 618.647095,1170.480103 603.932434,1180.803589 
	C602.433716,1181.854980 600.953430,1182.937744 599.407837,1183.916260 
	C591.098877,1189.175781 584.853760,1186.249756 584.363647,1176.451538 
	C583.906677,1167.317017 584.176392,1158.145996 584.129456,1148.991089 
	C584.116638,1146.494019 584.115967,1143.997070 584.108398,1141.000000 
z"/>
<path fill="#4D5677" opacity="1.000000" stroke="none" 
	d="
M291.854919,1390.905518 
	C291.869110,1391.896362 291.640747,1392.758667 291.412415,1393.621094 
	C291.143524,1393.626099 290.874634,1393.631226 290.605774,1393.636230 
	C290.423492,1392.662231 290.241211,1391.688110 290.109894,1390.357056 
	C290.644714,1390.259033 291.128571,1390.518066 291.854919,1390.905518 
z"/>
<path fill="#4D5677" opacity="1.000000" stroke="none" 
	d="
M338.737122,1390.875244 
	C338.882812,1391.862793 338.789917,1392.732300 338.556641,1394.916138 
	C337.759735,1392.647949 337.402222,1391.630493 337.068665,1390.306396 
	C337.561279,1390.252319 338.029938,1390.504761 338.737122,1390.875244 
z"/>
<path fill="#3D4E76" opacity="1.000000" stroke="none" 
	d="
M745.560059,1319.981934 
	C758.115723,1322.053223 762.787048,1329.168579 762.919250,1340.370361 
	C763.042908,1350.851807 756.537048,1358.311401 745.392822,1359.992065 
	C738.262878,1361.067261 730.951050,1360.936523 723.369751,1361.366333 
	C723.369751,1347.271851 723.369751,1334.038452 723.369751,1319.971558 
	C730.617126,1319.971558 737.863464,1319.971558 745.560059,1319.981934 
z"/>
<path fill="#3D4E76" opacity="1.000000" stroke="none" 
	d="
M974.199097,1364.941284 
	C976.455750,1353.259888 981.892395,1347.217407 991.780212,1346.304077 
	C1004.704529,1345.110229 1013.402954,1353.834717 1011.650391,1365.857178 
	C999.821289,1365.857178 987.899231,1365.857178 975.385010,1365.672241 
	C974.612732,1365.286011 974.414795,1365.104004 974.199097,1364.941284 
z"/>
<path fill="#736E7C" opacity="1.000000" stroke="none" 
	d="
M974.198853,1365.190918 
	C974.414795,1365.104004 974.612732,1365.286011 974.920044,1365.644043 
	C974.664368,1365.916260 974.381470,1365.796143 974.198853,1365.190918 
z"/>
<path fill="#3D4E76" opacity="1.000000" stroke="none" 
	d="
M855.312378,1378.054199 
	C859.315857,1377.773071 862.879028,1377.532715 866.975952,1377.256348 
	C866.975952,1382.096436 866.983643,1386.553589 866.965149,1391.010620 
	C866.963074,1391.500854 866.914307,1392.038574 866.712952,1392.473511 
	C863.350159,1399.735229 846.280701,1403.986084 839.815918,1399.189819 
	C834.355225,1395.138184 834.589294,1386.190674 840.823730,1382.806519 
	C845.099182,1380.485718 850.161438,1379.614136 855.312378,1378.054199 
z"/>
</svg>